<mxfile host="app.diagrams.net" modified="2021-10-23T18:02:45.386Z" agent="5.0 (Windows)" etag="cwwRxsPrSz7m8QG2yuIL" version="15.5.8" type="github" pages="2">
  <diagram id="rxH_UhYylSOstu2Tdo6V" name="Page-1">
    <mxGraphModel dx="1468" dy="617" grid="1" gridSize="10" guides="1" tooltips="1" connect="1" arrows="1" fold="1" page="1" pageScale="1" pageWidth="1169" pageHeight="827" math="0" shadow="0">
      <root>
        <mxCell id="0" />
        <mxCell id="1" parent="0" />
        <mxCell id="2y6p1NvMlhoou-gxpkjL-6" value="" style="edgeStyle=orthogonalEdgeStyle;rounded=0;orthogonalLoop=1;jettySize=auto;html=1;fontFamily=Georgia;" edge="1" parent="1" source="2y6p1NvMlhoou-gxpkjL-2" target="2y6p1NvMlhoou-gxpkjL-5">
          <mxGeometry relative="1" as="geometry" />
        </mxCell>
        <mxCell id="2y6p1NvMlhoou-gxpkjL-2" value="" style="ellipse;fillColor=#000000;strokeColor=none;fontFamily=Georgia;" vertex="1" parent="1">
          <mxGeometry x="40" y="90" width="30" height="30" as="geometry" />
        </mxCell>
        <mxCell id="3e9R-2Ews7-92SnHLewm-2" style="edgeStyle=orthogonalEdgeStyle;rounded=0;orthogonalLoop=1;jettySize=auto;html=1;entryX=0;entryY=0.5;entryDx=0;entryDy=0;fontFamily=Georgia;fontSize=12;" edge="1" parent="1" source="2y6p1NvMlhoou-gxpkjL-5" target="2y6p1NvMlhoou-gxpkjL-35">
          <mxGeometry relative="1" as="geometry" />
        </mxCell>
        <mxCell id="3e9R-2Ews7-92SnHLewm-25" value="false" style="edgeLabel;html=1;align=center;verticalAlign=middle;resizable=0;points=[];fontSize=12;fontFamily=Georgia;" vertex="1" connectable="0" parent="3e9R-2Ews7-92SnHLewm-2">
          <mxGeometry x="-0.3619" y="1" relative="1" as="geometry">
            <mxPoint x="-47" y="1" as="offset" />
          </mxGeometry>
        </mxCell>
        <mxCell id="3e9R-2Ews7-92SnHLewm-88" style="edgeStyle=orthogonalEdgeStyle;rounded=0;orthogonalLoop=1;jettySize=auto;html=1;fontFamily=Georgia;fontSize=12;endArrow=blockThin;endFill=1;" edge="1" parent="1" source="2y6p1NvMlhoou-gxpkjL-5" target="2y6p1NvMlhoou-gxpkjL-16">
          <mxGeometry relative="1" as="geometry" />
        </mxCell>
        <mxCell id="3e9R-2Ews7-92SnHLewm-91" value="true" style="edgeLabel;html=1;align=center;verticalAlign=middle;resizable=0;points=[];fontSize=12;fontFamily=Georgia;" vertex="1" connectable="0" parent="3e9R-2Ews7-92SnHLewm-88">
          <mxGeometry x="-0.6202" relative="1" as="geometry">
            <mxPoint as="offset" />
          </mxGeometry>
        </mxCell>
        <mxCell id="2y6p1NvMlhoou-gxpkjL-5" value="Is an account cookie set?" style="rhombus;whiteSpace=wrap;html=1;strokeWidth=2;fontFamily=Georgia;fillColor=none;" vertex="1" parent="1">
          <mxGeometry x="160" y="55" width="100" height="100" as="geometry" />
        </mxCell>
        <mxCell id="2y6p1NvMlhoou-gxpkjL-16" value="&lt;p&gt;&lt;font style=&quot;font-size: 12px&quot;&gt;Display user as loggen in&lt;/font&gt;&lt;/p&gt;" style="html=1;shape=mxgraph.infographic.ribbonSimple;notch1=0;notch2=13.28;align=center;verticalAlign=middle;fontSize=14;fontStyle=0;fillColor=none;rounded=0;strokeWidth=2;fontFamily=Georgia;" vertex="1" parent="1">
          <mxGeometry x="130" y="235" width="160" height="40" as="geometry" />
        </mxCell>
        <mxCell id="2y6p1NvMlhoou-gxpkjL-18" value="" style="edgeStyle=orthogonalEdgeStyle;rounded=0;orthogonalLoop=1;jettySize=auto;html=1;fontSize=12;fontFamily=Georgia;" edge="1" parent="1" source="2y6p1NvMlhoou-gxpkjL-16" target="2y6p1NvMlhoou-gxpkjL-17">
          <mxGeometry relative="1" as="geometry" />
        </mxCell>
        <mxCell id="3e9R-2Ews7-92SnHLewm-24" style="edgeStyle=orthogonalEdgeStyle;rounded=0;orthogonalLoop=1;jettySize=auto;html=1;fontFamily=Georgia;fontSize=12;entryX=0.357;entryY=-0.003;entryDx=0;entryDy=0;entryPerimeter=0;" edge="1" parent="1" source="2y6p1NvMlhoou-gxpkjL-35" target="2y6p1NvMlhoou-gxpkjL-44">
          <mxGeometry relative="1" as="geometry">
            <mxPoint x="410" y="210" as="targetPoint" />
            <Array as="points">
              <mxPoint x="550" y="190" />
              <mxPoint x="550" y="190" />
            </Array>
          </mxGeometry>
        </mxCell>
        <mxCell id="3e9R-2Ews7-92SnHLewm-26" value="true" style="edgeLabel;html=1;align=center;verticalAlign=middle;resizable=0;points=[];fontSize=12;fontFamily=Georgia;" vertex="1" connectable="0" parent="3e9R-2Ews7-92SnHLewm-24">
          <mxGeometry x="-0.2879" y="-1" relative="1" as="geometry">
            <mxPoint as="offset" />
          </mxGeometry>
        </mxCell>
        <mxCell id="3e9R-2Ews7-92SnHLewm-67" style="edgeStyle=orthogonalEdgeStyle;rounded=0;orthogonalLoop=1;jettySize=auto;html=1;fontFamily=Georgia;fontSize=12;entryX=0;entryY=0.167;entryDx=0;entryDy=0;entryPerimeter=0;" edge="1" parent="1" source="2y6p1NvMlhoou-gxpkjL-35" target="3e9R-2Ews7-92SnHLewm-62">
          <mxGeometry relative="1" as="geometry">
            <mxPoint x="430" y="105" as="targetPoint" />
            <Array as="points" />
          </mxGeometry>
        </mxCell>
        <mxCell id="3e9R-2Ews7-92SnHLewm-68" value="false" style="edgeLabel;html=1;align=center;verticalAlign=middle;resizable=0;points=[];fontSize=12;fontFamily=Georgia;" vertex="1" connectable="0" parent="3e9R-2Ews7-92SnHLewm-67">
          <mxGeometry x="-0.312" y="1" relative="1" as="geometry">
            <mxPoint as="offset" />
          </mxGeometry>
        </mxCell>
        <mxCell id="2y6p1NvMlhoou-gxpkjL-35" value="Does the&#xa;user have an&#xa;Account?" style="rhombus;rounded=0;fontSize=12;strokeWidth=2;fillColor=none;fontFamily=Georgia;" vertex="1" parent="1">
          <mxGeometry x="500" y="55" width="100" height="100" as="geometry" />
        </mxCell>
        <mxCell id="3e9R-2Ews7-92SnHLewm-41" style="edgeStyle=orthogonalEdgeStyle;rounded=0;orthogonalLoop=1;jettySize=auto;html=1;entryX=1;entryY=0.5;entryDx=0;entryDy=0;entryPerimeter=0;fontFamily=Georgia;fontSize=12;" edge="1" parent="1" source="2y6p1NvMlhoou-gxpkjL-38" target="2y6p1NvMlhoou-gxpkjL-16">
          <mxGeometry relative="1" as="geometry" />
        </mxCell>
        <mxCell id="3e9R-2Ews7-92SnHLewm-92" value="true" style="edgeLabel;html=1;align=center;verticalAlign=middle;resizable=0;points=[];fontSize=12;fontFamily=Georgia;" vertex="1" connectable="0" parent="3e9R-2Ews7-92SnHLewm-41">
          <mxGeometry x="0.2952" y="-1" relative="1" as="geometry">
            <mxPoint x="6" y="-11" as="offset" />
          </mxGeometry>
        </mxCell>
        <mxCell id="3e9R-2Ews7-92SnHLewm-89" style="edgeStyle=orthogonalEdgeStyle;rounded=0;orthogonalLoop=1;jettySize=auto;html=1;fontFamily=Georgia;fontSize=12;endArrow=blockThin;endFill=1;" edge="1" parent="1" source="2y6p1NvMlhoou-gxpkjL-38" target="2y6p1NvMlhoou-gxpkjL-44">
          <mxGeometry relative="1" as="geometry">
            <Array as="points">
              <mxPoint x="380" y="180" />
              <mxPoint x="520" y="180" />
            </Array>
          </mxGeometry>
        </mxCell>
        <mxCell id="3e9R-2Ews7-92SnHLewm-90" value="false" style="edgeLabel;html=1;align=center;verticalAlign=middle;resizable=0;points=[];fontSize=12;fontFamily=Georgia;" vertex="1" connectable="0" parent="3e9R-2Ews7-92SnHLewm-89">
          <mxGeometry x="-0.6881" relative="1" as="geometry">
            <mxPoint x="61" y="-1" as="offset" />
          </mxGeometry>
        </mxCell>
        <mxCell id="2y6p1NvMlhoou-gxpkjL-38" value="Are the&#xa;credentials&#xa;correct?" style="rhombus;rounded=0;fontSize=12;strokeWidth=2;fillColor=none;fontFamily=Georgia;" vertex="1" parent="1">
          <mxGeometry x="330" y="205" width="100" height="100" as="geometry" />
        </mxCell>
        <mxCell id="3e9R-2Ews7-92SnHLewm-50" style="edgeStyle=orthogonalEdgeStyle;rounded=0;orthogonalLoop=1;jettySize=auto;html=1;fontFamily=Georgia;fontSize=12;entryX=1;entryY=0.5;entryDx=0;entryDy=0;" edge="1" parent="1" source="2y6p1NvMlhoou-gxpkjL-44" target="2y6p1NvMlhoou-gxpkjL-38">
          <mxGeometry relative="1" as="geometry">
            <mxPoint x="270" y="205" as="targetPoint" />
            <Array as="points">
              <mxPoint x="500" y="255" />
              <mxPoint x="500" y="255" />
            </Array>
          </mxGeometry>
        </mxCell>
        <mxCell id="2y6p1NvMlhoou-gxpkjL-44" value="Enter User and Password" style="html=1;shape=mxgraph.infographic.ribbonSimple;notch1=10.52;notch2=0;align=center;verticalAlign=middle;fontSize=14;fontStyle=0;fillColor=none;flipH=0;spacingRight=0;spacingLeft=14;rounded=1;fontFamily=Georgia;strokeWidth=2;" vertex="1" parent="1">
          <mxGeometry x="475" y="235" width="210" height="40" as="geometry" />
        </mxCell>
        <mxCell id="3e9R-2Ews7-92SnHLewm-71" style="edgeStyle=orthogonalEdgeStyle;rounded=0;orthogonalLoop=1;jettySize=auto;html=1;entryX=1;entryY=0.5;entryDx=0;entryDy=0;entryPerimeter=0;fontFamily=Georgia;fontSize=12;" edge="1" parent="1" source="3e9R-2Ews7-92SnHLewm-62" target="2y6p1NvMlhoou-gxpkjL-44">
          <mxGeometry relative="1" as="geometry">
            <Array as="points">
              <mxPoint x="700" y="255" />
              <mxPoint x="700" y="255" />
            </Array>
          </mxGeometry>
        </mxCell>
        <mxCell id="3e9R-2Ews7-92SnHLewm-85" value="" style="group" vertex="1" connectable="0" parent="1">
          <mxGeometry x="5" y="240" width="100" height="50" as="geometry" />
        </mxCell>
        <mxCell id="2y6p1NvMlhoou-gxpkjL-17" value="" style="ellipse;html=1;shape=endState;fillColor=#000000;strokeColor=#000000;rounded=0;fontSize=12;fontFamily=Georgia;" vertex="1" parent="3e9R-2Ews7-92SnHLewm-85">
          <mxGeometry x="35" width="30" height="30" as="geometry" />
        </mxCell>
        <mxCell id="2y6p1NvMlhoou-gxpkjL-27" value="User is logged in" style="text;html=1;align=center;verticalAlign=middle;resizable=0;points=[];autosize=1;strokeColor=none;fillColor=none;fontSize=12;fontFamily=Georgia;" vertex="1" parent="3e9R-2Ews7-92SnHLewm-85">
          <mxGeometry y="30" width="100" height="20" as="geometry" />
        </mxCell>
        <mxCell id="3e9R-2Ews7-92SnHLewm-94" value="" style="group" vertex="1" connectable="0" parent="1">
          <mxGeometry x="720" y="50" width="325" height="230" as="geometry" />
        </mxCell>
        <mxCell id="3e9R-2Ews7-92SnHLewm-83" value="" style="group;rounded=0;arcSize=50;glass=0;shadow=0;sketch=0;strokeWidth=1;" vertex="1" connectable="0" parent="3e9R-2Ews7-92SnHLewm-94">
          <mxGeometry y="20" width="325" height="210" as="geometry" />
        </mxCell>
        <mxCell id="3e9R-2Ews7-92SnHLewm-62" value="&lt;div align=&quot;left&quot;&gt;&lt;br&gt;&lt;/div&gt;" style="html=1;dashed=0;whitespace=wrap;rounded=0;fontFamily=Georgia;fontSize=12;strokeWidth=2;fillColor=none;align=left;" vertex="1" parent="3e9R-2Ews7-92SnHLewm-83">
          <mxGeometry width="325" height="210" as="geometry" />
        </mxCell>
        <mxCell id="3e9R-2Ews7-92SnHLewm-44" value="Enter Username" style="html=1;shape=mxgraph.infographic.ribbonSimple;notch1=10.52;notch2=0;align=center;verticalAlign=middle;fontSize=14;fontStyle=0;fillColor=none;flipH=0;spacingRight=0;spacingLeft=14;rounded=1;fontFamily=Georgia;strokeWidth=2;" vertex="1" parent="3e9R-2Ews7-92SnHLewm-83">
          <mxGeometry x="80" y="17.5" width="135" height="32.5" as="geometry" />
        </mxCell>
        <mxCell id="3e9R-2Ews7-92SnHLewm-81" style="edgeStyle=orthogonalEdgeStyle;rounded=0;orthogonalLoop=1;jettySize=auto;html=1;fontFamily=Georgia;fontSize=12;" edge="1" parent="3e9R-2Ews7-92SnHLewm-83" source="3e9R-2Ews7-92SnHLewm-45" target="3e9R-2Ews7-92SnHLewm-44">
          <mxGeometry x="770" y="87.5" as="geometry">
            <mxPoint x="75" y="34" as="targetPoint" />
          </mxGeometry>
        </mxCell>
        <mxCell id="3e9R-2Ews7-92SnHLewm-45" value="" style="ellipse;fillColor=#000000;strokeColor=none;fontFamily=Georgia;" vertex="1" parent="3e9R-2Ews7-92SnHLewm-83">
          <mxGeometry x="25" y="18.75" width="30" height="30" as="geometry" />
        </mxCell>
        <mxCell id="3e9R-2Ews7-92SnHLewm-78" style="edgeStyle=orthogonalEdgeStyle;rounded=0;orthogonalLoop=1;jettySize=auto;html=1;entryX=1;entryY=0.5;entryDx=0;entryDy=0;entryPerimeter=0;fontFamily=Georgia;fontSize=12;" edge="1" parent="3e9R-2Ews7-92SnHLewm-83" source="3e9R-2Ews7-92SnHLewm-46" target="3e9R-2Ews7-92SnHLewm-44">
          <mxGeometry x="770" y="87.5" as="geometry">
            <Array as="points">
              <mxPoint x="270" y="34" />
              <mxPoint x="245" y="34" />
            </Array>
          </mxGeometry>
        </mxCell>
        <mxCell id="3e9R-2Ews7-92SnHLewm-79" value="true" style="edgeLabel;html=1;align=center;verticalAlign=middle;resizable=0;points=[];fontSize=12;fontFamily=Georgia;metaEdit=0;backgroundOutline=0;comic=0;" vertex="1" connectable="0" parent="3e9R-2Ews7-92SnHLewm-78">
          <mxGeometry x="-0.6118" relative="1" as="geometry">
            <mxPoint x="-20" y="-6" as="offset" />
          </mxGeometry>
        </mxCell>
        <mxCell id="3e9R-2Ews7-92SnHLewm-46" value="Is this&#xa;username&#xa;taken?" style="rhombus;rounded=0;fontFamily=Georgia;fontSize=12;strokeWidth=2;fillColor=none;align=center;" vertex="1" parent="3e9R-2Ews7-92SnHLewm-83">
          <mxGeometry x="225" y="50" width="90" height="90" as="geometry" />
        </mxCell>
        <mxCell id="3e9R-2Ews7-92SnHLewm-54" style="edgeStyle=orthogonalEdgeStyle;rounded=0;orthogonalLoop=1;jettySize=auto;html=1;fontFamily=Georgia;fontSize=12;exitX=0;exitY=0;exitDx=67.5;exitDy=32.5;exitPerimeter=0;entryX=0;entryY=0.5;entryDx=0;entryDy=0;" edge="1" parent="3e9R-2Ews7-92SnHLewm-83" source="3e9R-2Ews7-92SnHLewm-44" target="3e9R-2Ews7-92SnHLewm-46">
          <mxGeometry x="45" y="10" as="geometry">
            <Array as="points">
              <mxPoint x="147" y="95" />
            </Array>
          </mxGeometry>
        </mxCell>
        <mxCell id="3e9R-2Ews7-92SnHLewm-47" value="Enter password" style="html=1;shape=mxgraph.infographic.ribbonSimple;notch1=10.52;notch2=0;align=center;verticalAlign=middle;fontSize=14;fontStyle=0;fillColor=none;flipH=0;spacingRight=0;spacingLeft=14;rounded=1;fontFamily=Georgia;strokeWidth=2;" vertex="1" parent="3e9R-2Ews7-92SnHLewm-83">
          <mxGeometry x="80" y="137.5" width="135" height="35" as="geometry" />
        </mxCell>
        <mxCell id="3e9R-2Ews7-92SnHLewm-55" style="edgeStyle=orthogonalEdgeStyle;rounded=0;orthogonalLoop=1;jettySize=auto;html=1;fontFamily=Georgia;fontSize=12;entryX=1;entryY=0.5;entryDx=0;entryDy=0;entryPerimeter=0;" edge="1" parent="3e9R-2Ews7-92SnHLewm-83" source="3e9R-2Ews7-92SnHLewm-46" target="3e9R-2Ews7-92SnHLewm-47">
          <mxGeometry x="45" y="10" as="geometry">
            <mxPoint x="245" y="200" as="targetPoint" />
            <Array as="points">
              <mxPoint x="270" y="155" />
            </Array>
          </mxGeometry>
        </mxCell>
        <mxCell id="3e9R-2Ews7-92SnHLewm-59" value="false" style="edgeLabel;html=1;align=center;verticalAlign=middle;resizable=0;points=[];fontSize=12;fontFamily=Georgia;spacingLeft=0;spacing=2;horizontal=1;fontStyle=0" vertex="1" connectable="0" parent="3e9R-2Ews7-92SnHLewm-55">
          <mxGeometry x="-0.4461" relative="1" as="geometry">
            <mxPoint x="-22" as="offset" />
          </mxGeometry>
        </mxCell>
        <mxCell id="3e9R-2Ews7-92SnHLewm-75" value="" style="group" vertex="1" connectable="0" parent="3e9R-2Ews7-92SnHLewm-83">
          <mxGeometry y="140" width="80" height="60" as="geometry" />
        </mxCell>
        <mxCell id="3e9R-2Ews7-92SnHLewm-48" value="" style="ellipse;html=1;shape=endState;fillColor=#000000;strokeColor=#000000;rounded=0;fontFamily=Georgia;fontSize=12;align=center;" vertex="1" parent="3e9R-2Ews7-92SnHLewm-75">
          <mxGeometry x="25" width="30" height="30" as="geometry" />
        </mxCell>
        <mxCell id="3e9R-2Ews7-92SnHLewm-49" value="&lt;div&gt;Account has&lt;/div&gt;&lt;div&gt;been created&lt;/div&gt;" style="text;html=1;align=center;verticalAlign=middle;resizable=0;points=[];autosize=1;strokeColor=none;fillColor=none;fontSize=12;fontFamily=Georgia;" vertex="1" parent="3e9R-2Ews7-92SnHLewm-75">
          <mxGeometry y="30" width="80" height="30" as="geometry" />
        </mxCell>
        <mxCell id="3e9R-2Ews7-92SnHLewm-77" style="edgeStyle=orthogonalEdgeStyle;rounded=0;orthogonalLoop=1;jettySize=auto;html=1;entryX=1;entryY=0.5;entryDx=0;entryDy=0;fontFamily=Georgia;fontSize=12;" edge="1" parent="3e9R-2Ews7-92SnHLewm-83" source="3e9R-2Ews7-92SnHLewm-47" target="3e9R-2Ews7-92SnHLewm-48">
          <mxGeometry x="770" y="87.5" as="geometry" />
        </mxCell>
        <mxCell id="3e9R-2Ews7-92SnHLewm-93" value="&lt;div&gt;Create Account&lt;br&gt;&lt;/div&gt;" style="text;html=1;align=left;verticalAlign=middle;resizable=0;points=[];autosize=1;strokeColor=none;fillColor=none;fontSize=12;fontFamily=Georgia;fontStyle=2" vertex="1" parent="3e9R-2Ews7-92SnHLewm-94">
          <mxGeometry width="100" height="20" as="geometry" />
        </mxCell>
      </root>
    </mxGraphModel>
  </diagram>
  <diagram id="CCknijTJ0qZyq1bNGotc" name="Page-2">
    <mxGraphModel dx="2129" dy="895" grid="1" gridSize="10" guides="1" tooltips="1" connect="1" arrows="1" fold="1" page="1" pageScale="1" pageWidth="1169" pageHeight="827" math="0" shadow="0">
      <root>
        <mxCell id="3VlwDbBQQKx8jBc5TLFD-0" />
        <mxCell id="3VlwDbBQQKx8jBc5TLFD-1" parent="3VlwDbBQQKx8jBc5TLFD-0" />
        <mxCell id="3VlwDbBQQKx8jBc5TLFD-3" value="Home Page" style="shape=umlFrame;whiteSpace=wrap;html=1;width=120;height=30;boundedLbl=1;verticalAlign=middle;align=left;spacingLeft=5;rounded=0;fontFamily=Georgia;fontSize=12;strokeWidth=2;fillColor=default;" vertex="1" parent="3VlwDbBQQKx8jBc5TLFD-1">
          <mxGeometry x="40" y="40" width="400" height="320" as="geometry" />
        </mxCell>
        <mxCell id="3VlwDbBQQKx8jBc5TLFD-4" value="" style="rounded=0;whiteSpace=wrap;html=1;fontFamily=Georgia;fontSize=12;strokeWidth=2;fillColor=default;align=center;" vertex="1" parent="3VlwDbBQQKx8jBc5TLFD-1">
          <mxGeometry x="40" y="80" width="400" height="30" as="geometry" />
        </mxCell>
        <mxCell id="3VlwDbBQQKx8jBc5TLFD-5" value="" style="rounded=0;whiteSpace=wrap;html=1;fontFamily=Georgia;fontSize=12;strokeWidth=2;fillColor=default;align=center;" vertex="1" parent="3VlwDbBQQKx8jBc5TLFD-1">
          <mxGeometry x="300" y="150" width="120" height="60" as="geometry" />
        </mxCell>
        <mxCell id="3VlwDbBQQKx8jBc5TLFD-6" value="Home Page" style="shape=umlFrame;whiteSpace=wrap;html=1;width=120;height=30;boundedLbl=1;verticalAlign=middle;align=left;spacingLeft=5;rounded=0;fontFamily=Georgia;fontSize=12;strokeWidth=2;fillColor=default;" vertex="1" parent="3VlwDbBQQKx8jBc5TLFD-1">
          <mxGeometry x="50" y="50" width="400" height="320" as="geometry" />
        </mxCell>
        <mxCell id="3VlwDbBQQKx8jBc5TLFD-7" value="" style="rounded=0;whiteSpace=wrap;html=1;fontFamily=Georgia;fontSize=12;strokeWidth=2;fillColor=default;align=center;" vertex="1" parent="3VlwDbBQQKx8jBc5TLFD-1">
          <mxGeometry x="50" y="90" width="400" height="30" as="geometry" />
        </mxCell>
        <mxCell id="3VlwDbBQQKx8jBc5TLFD-8" value="" style="rounded=0;whiteSpace=wrap;html=1;fontFamily=Georgia;fontSize=12;strokeWidth=2;fillColor=default;align=center;" vertex="1" parent="3VlwDbBQQKx8jBc5TLFD-1">
          <mxGeometry x="310" y="160" width="120" height="60" as="geometry" />
        </mxCell>
        <mxCell id="3VlwDbBQQKx8jBc5TLFD-9" value="Home Page" style="shape=umlFrame;whiteSpace=wrap;html=1;width=120;height=30;boundedLbl=1;verticalAlign=middle;align=left;spacingLeft=5;rounded=0;fontFamily=Georgia;fontSize=12;strokeWidth=2;fillColor=default;" vertex="1" parent="3VlwDbBQQKx8jBc5TLFD-1">
          <mxGeometry x="60" y="60" width="400" height="320" as="geometry" />
        </mxCell>
        <mxCell id="3VlwDbBQQKx8jBc5TLFD-10" value="" style="rounded=0;whiteSpace=wrap;html=1;fontFamily=Georgia;fontSize=12;strokeWidth=2;fillColor=default;align=center;" vertex="1" parent="3VlwDbBQQKx8jBc5TLFD-1">
          <mxGeometry x="60" y="100" width="400" height="30" as="geometry" />
        </mxCell>
        <mxCell id="3VlwDbBQQKx8jBc5TLFD-11" value="" style="rounded=0;whiteSpace=wrap;html=1;fontFamily=Georgia;fontSize=12;strokeWidth=2;fillColor=default;align=center;" vertex="1" parent="3VlwDbBQQKx8jBc5TLFD-1">
          <mxGeometry x="320" y="170" width="120" height="60" as="geometry" />
        </mxCell>
        <mxCell id="3VlwDbBQQKx8jBc5TLFD-12" value="Home Page" style="shape=umlFrame;whiteSpace=wrap;html=1;width=120;height=30;boundedLbl=1;verticalAlign=middle;align=left;spacingLeft=5;rounded=0;fontFamily=Georgia;fontSize=12;strokeWidth=2;fillColor=default;" vertex="1" parent="3VlwDbBQQKx8jBc5TLFD-1">
          <mxGeometry x="70" y="70" width="400" height="320" as="geometry" />
        </mxCell>
        <mxCell id="3VlwDbBQQKx8jBc5TLFD-13" value="" style="rounded=0;whiteSpace=wrap;html=1;fontFamily=Georgia;fontSize=12;strokeWidth=2;fillColor=default;align=center;" vertex="1" parent="3VlwDbBQQKx8jBc5TLFD-1">
          <mxGeometry x="70" y="110" width="400" height="30" as="geometry" />
        </mxCell>
        <mxCell id="3VlwDbBQQKx8jBc5TLFD-14" value="" style="rounded=0;whiteSpace=wrap;html=1;fontFamily=Georgia;fontSize=12;strokeWidth=2;fillColor=default;align=center;" vertex="1" parent="3VlwDbBQQKx8jBc5TLFD-1">
          <mxGeometry x="330" y="180" width="120" height="60" as="geometry" />
        </mxCell>
        <mxCell id="3VlwDbBQQKx8jBc5TLFD-15" value="Home Page" style="shape=umlFrame;whiteSpace=wrap;html=1;width=120;height=30;boundedLbl=1;verticalAlign=middle;align=left;spacingLeft=5;rounded=0;fontFamily=Georgia;fontSize=12;strokeWidth=2;fillColor=default;" vertex="1" parent="3VlwDbBQQKx8jBc5TLFD-1">
          <mxGeometry x="80" y="80" width="400" height="320" as="geometry" />
        </mxCell>
        <mxCell id="3VlwDbBQQKx8jBc5TLFD-16" value="" style="rounded=0;whiteSpace=wrap;html=1;fontFamily=Georgia;fontSize=12;strokeWidth=2;fillColor=default;align=center;" vertex="1" parent="3VlwDbBQQKx8jBc5TLFD-1">
          <mxGeometry x="80" y="120" width="400" height="30" as="geometry" />
        </mxCell>
        <mxCell id="3VlwDbBQQKx8jBc5TLFD-17" value="" style="rounded=0;whiteSpace=wrap;html=1;fontFamily=Georgia;fontSize=12;strokeWidth=2;fillColor=default;align=center;" vertex="1" parent="3VlwDbBQQKx8jBc5TLFD-1">
          <mxGeometry x="340" y="190" width="120" height="60" as="geometry" />
        </mxCell>
        <mxCell id="3VlwDbBQQKx8jBc5TLFD-18" value="Home Page" style="shape=umlFrame;whiteSpace=wrap;html=1;width=120;height=30;boundedLbl=1;verticalAlign=middle;align=left;spacingLeft=5;rounded=0;fontFamily=Georgia;fontSize=12;strokeWidth=2;fillColor=default;" vertex="1" parent="3VlwDbBQQKx8jBc5TLFD-1">
          <mxGeometry x="600" y="60" width="400" height="320" as="geometry" />
        </mxCell>
        <mxCell id="3VlwDbBQQKx8jBc5TLFD-20" value="" style="rounded=0;whiteSpace=wrap;html=1;fontFamily=Georgia;fontSize=12;strokeWidth=2;fillColor=default;align=center;" vertex="1" parent="3VlwDbBQQKx8jBc5TLFD-1">
          <mxGeometry x="810" y="130" width="150" height="180" as="geometry" />
        </mxCell>
        <mxCell id="3VlwDbBQQKx8jBc5TLFD-21" value="" style="rounded=0;whiteSpace=wrap;html=1;fontFamily=Georgia;fontSize=12;strokeWidth=2;fillColor=default;align=center;" vertex="1" parent="3VlwDbBQQKx8jBc5TLFD-1">
          <mxGeometry x="640" y="130" width="150" height="180" as="geometry" />
        </mxCell>
        <mxCell id="3VlwDbBQQKx8jBc5TLFD-22" value="Player 1" style="text;html=1;align=center;verticalAlign=middle;resizable=0;points=[];autosize=1;strokeColor=none;fillColor=none;fontSize=12;fontFamily=Georgia;" vertex="1" parent="3VlwDbBQQKx8jBc5TLFD-1">
          <mxGeometry x="810" y="110" width="60" height="20" as="geometry" />
        </mxCell>
        <mxCell id="3VlwDbBQQKx8jBc5TLFD-23" value="Player 2" style="text;html=1;align=center;verticalAlign=middle;resizable=0;points=[];autosize=1;strokeColor=none;fillColor=none;fontSize=12;fontFamily=Georgia;" vertex="1" parent="3VlwDbBQQKx8jBc5TLFD-1">
          <mxGeometry x="640" y="110" width="60" height="20" as="geometry" />
        </mxCell>
      </root>
    </mxGraphModel>
  </diagram>
</mxfile>
